<svg xmlns="http://www.w3.org/2000/svg" version="1.1" xmlns:xlink="http://www.w3.org/1999/xlink" xmlns:svgjs="http://svgjs.dev/svgjs" viewBox="0 0 800 800"><defs><linearGradient x1="50%" y1="0%" x2="50%" y2="100%" id="uundulate-grad"><stop stop-color="hsl(37, 99%, 67%)" stop-opacity="1" offset="45%"></stop><stop stop-color="hsl(316, 73%, 52%)" stop-opacity="1" offset="100%"></stop></linearGradient></defs><g stroke-width="3" stroke="url(#uundulate-grad)" fill="none"><path d="M948.8566386100761 125.1295596448515C984.9585996911287 299.28368486070985 943.6716542863242 474.9759869066693 782.9886276173361 691.0113322615466C622.3056009483478 907.0466776164242 325.1947461126365 1222.3174603474974 177.57811059893152 1162.099217348263C29.961475085226652 1101.8809743490285 139.15076999005578 714.1795488170376 74.42877715155123 401.96376586522047C9.706784313046455 89.74798291340335 -244.60212945854363 -222.6006586038357 -133.0874550258912 -336.5365408204596C-21.572780593238804 -450.47242303708344 384.2941949207908 -241.1089063715139 609.6992144282835 -144.9284687745744C835.1042339357764 -48.74803117763486 912.7546775290236 -49.02456557100686 948.8566386100761 125.1295596448515C984.9585996911287 299.28368486070985 943.6716542863242 474.9759869066693 782.9886276173361 691.0113322615466 "></path><path d="M923.908665068851 137.62368166738668C958.3696279189464 303.8617102825242 918.9593618507242 471.5679985991219 765.5801091212356 677.7835555287777C612.2008563917468 883.9991124584335 328.59504041220407 1184.939405065367 187.68825196730404 1127.458354929734C46.78146352240378 1069.9773047941012 151.0076086588317 699.8986713317463 89.22752458571358 401.8745148777389C27.447440512595563 103.85035842373179 -215.30197717846778 -194.30061756999658 -108.85615158366318 -303.05759604950117C-2.410325988858631 -411.81457452900577 385.0081506381696 -211.96758134823483 600.1674874407763 -120.15898182388344C815.3268242433833 -28.350382299532043 889.4477022187555 -28.614346947750846 923.908665068851 137.62368166738668C958.3696279189464 303.8617102825242 918.9593618507242 471.5679985991219 765.5801091212356 677.7835555287777 "></path><path d="M898.9606304924696 150.11780368992186C931.7805951116084 308.43973570433855 894.2470083799681 468.1600102915745 748.1715295899787 664.5557787960083C602.0960507999894 860.9515473004424 331.9952736766155 1147.5613497832362 197.7983323005201 1092.817492511205C63.60139092442478 1038.0736352391739 162.8643862924514 685.6177938464548 104.0262109847198 401.7852638902573C45.18803567698831 117.95273393406 -186.00188593354824 -166.0005765361575 -84.62490917659147 -269.5786512785428C16.752067580365292 -373.15672602092815 385.7220453203921 -182.8262563249558 590.6356994181128 -95.38949487319258C795.5493535158334 -7.952733421429457 866.1406658733313 -8.204128324494832 898.9606304924696 150.11780368992186C931.7805951116084 308.43973570433855 894.2470083799681 468.1600102915745 748.1715295899787 664.5557787960083 "></path><path d="M874.0125959160882 162.61192571245704C905.1915623042701 313.0177611261529 869.5346549092119 464.7520219840269 730.762950058722 651.3280020632394C591.9912452082322 837.9039821424517 335.39550694102695 1110.183294501106 207.90841263373636 1058.176630092676C80.42131832644577 1006.1699656842463 174.72116392607097 671.3369163611633 118.82489738372601 401.6960129027758C62.92863084138105 132.05510944438822 -156.70179468862864 -137.70053550231836 -60.39366676951971 -236.09970650758441C35.914461149589215 -334.49887751285047 386.43594000261476 -153.68493130167678 581.1039113954495 -70.62000792250171C775.7718827882841 12.444915456673357 842.8336295279069 12.206090298761183 874.0125959160882 162.61192571245704C905.1915623042701 313.0177611261529 869.5346549092119 464.7520219840269 730.762950058722 651.3280020632394 "></path><path d="M849.064530822129 175.10604773499222C878.6024989793536 317.5957865479671 844.8222709208776 461.3440336764793 713.354340009887 638.10022533047C581.8864090988967 814.8564169844608 338.79570968786015 1072.8052392189752 218.0184624493744 1023.5357676741469C97.24121521088853 974.2662961293188 186.57791104211242 657.0560388758718 133.6235532651541 401.6067619152941C80.66919548819573 146.15748495471644 -127.40173396128716 -109.40049446847922 -36.162454880026075 -202.62076173662604C55.07682420123501 -295.84102900477285 387.14980416725916 -124.54360627839776 571.5720928552079 -45.85052097181085C755.9943815431566 32.84256433477606 819.5265626649043 32.6163089220172 849.064530822129 175.10604773499222C878.6024989793536 317.5957865479671 844.8222709208776 461.3440336764793 713.354340009887 638.10022533047 "></path><path d="M824.1165572809041 187.60013923994916C852.0135272071716 322.17378145220346 820.1099784852775 457.9360148513538 695.9458215137865 624.8724180801228C571.7816645422957 791.808821308892 342.19600398742784 1035.4271534192667 228.1286038177468 988.89487473804C114.06120364806577 942.3625960568133 198.43474971088835 642.7751308730021 148.42230069931657 401.5174804102344C98.40985168774478 160.25982994746664 -98.10158168121131 -81.10048395221821 -11.931151437798064 -169.14184748324578C74.23927880561519 -257.1832110142733 387.86375988463806 -95.4023117726968 562.0403658677006 -21.081064538698C736.2169718507632 53.240182695300746 796.2195873546361 53.02649702769497 824.1165572809041 187.60013923994916C852.0135272071716 322.17378145220346 820.1099784852775 457.9360148513538 695.9458215137865 624.8724180801228 "></path><path d="M799.1685227045227 200.0942002273281C825.4244943998335 326.75174583886144 795.3976250145213 454.52796550865 678.5372419825298 611.6445803121974C561.6768589505385 768.7611951157446 345.5962372518393 998.0490371019798 238.23868415096297 954.2539512843546C130.88113105008676 910.4588654667295 210.29152734450793 628.4941923525544 163.22098709832278 401.42816838759654C116.15044685213752 174.3621444226386 -68.80149043629172 -52.800503953535326 12.300090969273697 -135.6629637474436C93.40167237483911 -218.52542354135187 388.5776545668606 -66.26104778457403 552.5085778450372 3.6883613768366104C716.4395011232136 73.6377705382472 772.9125510092117 73.43665461579474 799.1685227045227 200.0942002273281C825.4244943998335 326.75174583886144 795.3976250145213 454.52796550865 678.5372419825298 611.6445803121974 "></path><path d="M774.2204576105632 212.58832224986327C798.8354310749173 331.32977126067567 770.6852410261868 451.11997720110253 661.128631933695 598.4168035794282C551.5720228412031 745.7136299577537 348.9964399986725 960.670981819849 248.348733966601 919.6130888658256C147.70102793452952 878.555195911802 222.1482744605495 614.2133148672629 178.01964297975087 401.33891740011484C133.8910114989522 188.46451993296682 -39.50142970895024 -24.500462919696247 36.53130285876733 -102.18401897648522C112.5640354264849 -179.8675750332742 389.291518731505 -37.11972276129501 542.9767593047956 28.457848327527415C696.6619998780861 94.0354194163499 749.6054841462092 93.84687323905075 774.2204576105632 212.58832224986327C798.8354310749173 331.32977126067567 770.6852410261868 451.11997720110253 661.128631933695 598.4168035794282 "></path><path d="M749.2724230341819 225.08244427239845C772.246398267579 335.90779668249013 745.9728875554306 447.71198889355514 643.7200524024382 585.1890268466591C541.4672172494458 722.666064799763 352.3966732630839 923.2929265377186 258.4588142998173 884.9722264472966C164.52095533655051 846.6515263568747 234.00505209416906 599.9324373819713 192.81832937875703 401.24966641263325C151.63160666334494 202.56689544329515 -10.201338464030641 3.7995781141428893 60.762545265839094 -68.70507420552684C131.72642899570883 -141.20972652519657 390.00541341372764 -7.9783977380159286 533.4449712821322 53.227335278218334C676.8845291505368 114.4330682944526 726.298447800785 114.25709186230677 749.2724230341819 225.08244427239845C772.246398267579 335.90779668249013 745.9728875554306 447.71198889355514 643.7200524024382 585.1890268466591 "></path><path d="M724.3244189753788 237.57650525977738C745.6573959778189 340.4857610691482 721.2605646022525 444.3039395508515 626.3115033887597 571.9611890787336C531.3624421752666 699.6184386066159 355.7969370450735 885.9148102204317 268.56892515061156 850.3313029936114C181.34091325614952 814.7477957667911 245.86186024536687 585.6514988615238 207.6170462953413 401.1603543899954C169.37223234531587 216.66920991846712 19.098783298467083 32.099558112825775 84.99381819048898 -35.22619046972471C150.88885308251088 -102.55193905227515 390.7193386135284 21.162866250106845 523.9132137770468 77.99676119375295C657.1070889405653 134.83065613739905 702.9914419729387 134.66724945040642 724.3244189753788 237.57650525977738C745.6573959778189 340.4857610691482 721.2605646022525 444.3039395508515 626.3115033887597 571.9611890787336 "></path><path d="M699.3764149165755 250.07062728231244C719.0683936880587 345.06378649096246 696.5482416490746 440.895951243304 608.902954375081 558.7334123459644C521.2576671010875 676.570873448625 359.19720082706306 848.5367549383013 278.67903600140585 815.6904405750824C198.16087117574864 782.8441262118636 257.71866839656457 571.3706213762323 222.41576321192565 401.0711034025139C187.11285802728673 230.77158542879533 48.39890506096481 60.39959914666491 109.22509111513887 -1.747245698766278C170.05127716931293 -63.894090544197525 391.43326381332906 50.30419127338587 514.3814562719615 102.76624814444381C637.3296487305939 155.22830501550175 679.6844361450924 155.07746807366243 699.3764149165755 250.07062728231244C719.0683936880587 345.06378649096246 696.5482416490746 440.895951243304 608.902954375081 558.7334123459644 "></path><path d="M674.4283498226162 262.5647493048476C692.4793303631425 349.6418119127768 671.8358576607402 437.4879629357565 591.4943443262462 545.5056356131952C511.152830991752 653.523308290634 362.5974035738964 811.1586996561705 288.7890858170439 781.0495781565533C214.98076806019145 750.940456656936 269.575415512606 557.0897438909407 237.21441909335374 400.9818524150321C204.85342267410135 244.87396093912355 77.69896578830628 88.69964018050405 133.4563030046325 31.7316990721921C189.21364022095872 -25.236242036119847 392.14712797797347 79.44551629666489 504.8496377317199 127.53573509513467C617.5521474854663 175.62595389360445 656.37736928209 175.48768669691844 674.4283498226162 262.5647493048476C692.4793303631425 349.6418119127768 671.8358576607402 437.4879629357565 591.4943443262462 545.5056356131952 "></path><path d="M649.4803457638129 275.0588713273828C665.8903280733823 354.21983733459115 647.1235347075622 434.07997462820913 574.0857953125675 532.277858880426C501.0480559175728 630.4757431326431 365.9976673558858 773.7806443740401 298.89919666783817 746.4087157380245C231.8007259797905 719.0367871020089 281.4322236638038 542.8088664056493 252.01313600993802 400.8926014275505C222.59404835607228 258.9763364494519 106.999087550804 116.99968121434313 157.6875759292824 65.21064384315048C208.37606430776077 13.42160647195783 392.86105317777424 108.58684131994397 495.31788022663454 152.3052220458256C597.7747072754948 196.02360277170715 633.0703634542438 195.89790532017446 649.4803457638129 275.0588713273828C665.8903280733823 354.21983733459115 647.1235347075622 434.07997462820913 574.0857953125675 532.277858880426 "></path><path d="M624.5323264462207 287.552993349918C639.3013105248331 358.7978627564055 622.411196495595 430.6719863206615 556.6772310400997 519.0500821476569C490.94326558460466 607.4281779746523 369.3979158790863 736.4025890919095 309.00929225984345 711.7678533194953C248.6206686406005 687.1331175470813 293.28901655621246 528.5279889203578 266.8118376677333 400.8033504400689C240.33465877925414 273.0787119597801 136.29919405451267 145.29972224818226 181.9188335951432 98.68958861410886C227.53847313577376 52.07945498003545 393.57496311878583 137.728166343223 485.7861074627601 177.07470899651645C577.9972518067345 216.4212516498099 609.7633423676084 216.30812394343047 624.5323264462207 287.552993349918C639.3013105248331 358.7978627564055 622.411196495595 430.6719863206615 556.6772310400997 519.0500821476569 "></path><path d="M599.5842308346832 300.04711537245316C612.7122166823386 363.37588817821984 597.6987819896825 427.26399801311413 539.2685904736868 505.82230541488775C480.8383989576912 584.3806128166614 372.7980881083415 699.024533809779 319.11931155790336 677.1269909009663C265.44053500746526 655.2294479921538 305.14573315467584 514.2471114350662 281.61046303158327 400.71409945258733C258.07519290849064 287.1810874701084 165.59922426427602 173.5997632820214 206.15001496705872 132.16853338506724C246.70080566984143 90.73730348811313 394.2887967658521 166.86949136650207 476.2542584049404 201.84419594720737C558.2197200440287 236.81890052791266 586.4562449870277 236.71834256668643 599.5842308346832 300.04711537245316C612.7122166823386 363.37588817821984 597.6987819896825 427.26399801311413 539.2685904736868 505.82230541488775 "></path><path d="M574.6362420346691 312.5412068774101C586.1232296513676 367.95388308245606 572.9864742952934 423.8559791879885 521.8600567187973 492.5944981645405C470.73363914230094 561.3330171410925 376.1983671491201 661.6464480100702 329.22943766748676 642.4860979648593C282.2605081858534 623.3257479196483 317.00255656466265 499.9662034321966 296.4091952069566 400.6248179475276C275.81583384925057 301.2834324628585 194.8993612855628 201.89977379828235 230.38130315049767 165.64744763844755C265.86324501543254 129.39512147861262 395.00273722444194 196.01078587220297 466.7225161586442 226.6136523803201C538.4422950928465 257.21651888843724 563.1492544179706 257.1285306723643 574.6362420346691 312.5412068774101C586.1232296513676 367.95388308245606 572.9864742952934 423.8559791879885 521.8600567187973 492.5944981645405 "></path><path d="M549.6881769407096 325.0353136411562C559.5341663264512 372.5318932454812 548.2740903069591 420.44797562165195 504.45144666996237 479.3667061729823C460.6288030329656 538.2854367243125 379.5985698959534 624.2683774691507 339.3394874831248 607.8452202875412C299.0804050702962 591.4220631059318 328.85930368070416 485.68531068811615 311.2078510883847 400.53555170125696C293.55639849606524 315.38579271439767 224.19942201290428 230.19979957333243 254.6125150399913 199.12637715061686C285.02560806707834 168.05295472790124 395.7166013890864 225.15209563669293 457.1906976184026 251.3831240722219C518.6647938477188 277.6141525077509 539.8421875549681 277.5387340368312 549.6881769407096 325.0353136411562C559.5341663264512 372.5318932454812 548.2740903069591 420.44797562165195 504.45144666996237 479.3667061729823 "></path><path d="M524.7401423643283 337.5294356636914C532.945133519113 377.1099186672956 523.561736836203 417.03998731410456 487.04286713870556 466.138929440213C450.5239974412083 515.2378715663215 382.9988031603648 586.89032218702 349.44956781634096 573.2043578690123C315.90033247231713 559.5183935510045 340.7160813143238 471.40443320282463 326.0065374873909 400.44630071377526C311.29699366045804 329.48816822472594 253.49951325782388 258.49984060717156 278.84375744706307 232.60532192157524C304.18800163630226 206.71080323597891 396.430496071309 254.29342065997196 447.65890959573915 276.15261102291277C498.8873231201693 298.0118013858536 516.5351512095438 297.94895266008723 524.7401423643283 337.5294356636914C532.945133519113 377.1099186672956 523.561736836203 417.03998731410456 487.04286713870556 466.138929440213 "></path><path d="M499.79212304673615 350.0235576862266C506.3561159705639 381.6879440891099 498.84939862423585 413.63199900655707 469.63430286623793 452.9111527074439C440.41920710824013 492.1903064083307 386.3990516835653 549.5122669048894 359.55966340834624 538.5634954504832C332.72027513312713 527.6147239960769 352.5728742067324 457.1235557175331 340.80523914518614 400.35704972629367C329.03760408363985 343.5905437350542 282.79961976153254 286.7998816410107 303.0750151129239 266.0842666925336C323.35041046431525 245.36865174405654 397.1444060123206 283.43474568325104 438.12713683186473 300.9220979736037C479.1098676514089 318.40945026395633 493.2281301229084 318.35917128334324 499.79212304673615 350.0235576862266C506.3561159705639 381.6879440891099 498.84939862423585 413.63199900655707 469.63430286623793 452.9111527074439 "></path><path d="M474.84410372914385 362.5176491911836C479.76709842201467 386.2659389933461 474.1370604122686 410.22398018143144 452.22573859377025 439.6833454570966C430.31441677527187 469.14271073276177 389.7993002067658 512.1341811051808 369.66975900035146 503.9226025143761C349.54021779393713 495.71102392357136 364.42966709914117 442.84264771466354 355.6039408029814 400.26776822123395C346.77821450682166 357.6928887278043 312.0997262652412 315.0998921572717 327.3062727787847 299.56318094591387C342.51281929232823 284.0264697345561 397.8583159533323 312.57604018895194 428.5953640679904 325.6915544067164C459.33241218264845 338.8070686244809 469.9211090362731 338.7693593890211 474.84410372914385 362.5176491911836C479.76709842201467 386.2659389933461 474.1370604122686 410.22398018143144 452.22573859377025 439.6833454570966 "></path><path d="M449.8960691527626 375.01177121371876C453.1780656146765 390.8439644151604 449.42470694151245 406.815991873884 434.8171590625135 426.4555687243274C420.2096111835146 446.0951455747708 393.1995334711772 474.7561258230502 379.7798393335676 469.28174009584706C366.3601451959581 463.8073543686439 376.28644473276074 428.56177022937203 370.4026272019876 400.1785172337523C364.51880967121446 371.7952642381326 341.3998175101608 343.3999331911108 351.5375151858565 333.0421257168723C361.67521286155215 322.68431824263376 398.5722106355548 341.71736521223096 419.0635760453269 350.4610413574073C439.55494145509897 359.2047175025836 446.61407269084873 359.1795780122771 449.8960691527626 375.01177121371876C453.1780656146765 390.8439644151604 449.42470694151245 406.815991873884 434.8171590625135 426.4555687243274 "></path><path d="M424.94801931759224 387.5058779774648C426.5890175485492 395.42197457818565 424.71233821196716 403.40798830754744 417.4085642724677 413.2277767327692C410.1047903329682 423.0475651579909 396.5997514767995 437.37805528213056 389.8899044079948 434.64086241852897C383.18005733919 431.90366955492743 388.1432071075913 414.2808774852915 385.2012983422047 400.0892509874816C382.2593895768182 385.8976244896717 370.69989349629134 371.69995896616086 375.7687423341392 366.5210552290416C380.837591171987 361.3421514919223 399.28609005898835 370.858674976721 409.5317727638744 375.23051304930914C419.7774554687604 379.6023511218973 423.3070210866353 379.589781376744 424.94801931759224 387.5058779774648C426.5890175485492 395.42197457818565 424.71233821196716 403.40798830754744 417.4085642724677 413.2277767327692 "></path></g></svg>